<?xml version="1.0" standalone="no"?><!DOCTYPE svg PUBLIC "-//W3C//DTD SVG 1.1//EN" "http://www.w3.org/Graphics/SVG/1.1/DTD/svg11.dtd"><svg t="1734674978106" class="icon" viewBox="0 0 1102 1024" version="1.1" xmlns="http://www.w3.org/2000/svg" p-id="5229" xmlns:xlink="http://www.w3.org/1999/xlink" width="34.4375" height="32"><path d="M701.597538 511.842462l366.119385-366.119385a57.974154 57.974154 0 0 0 0-82.077539l-41.038769-41.038769a57.974154 57.974154 0 0 0-82.077539 0L578.481231 388.726154 212.283077 22.528a57.974154 57.974154 0 0 0-82.077539 0l-41.117538 41.117538a57.974154 57.974154 0 0 0 0 82.077539l366.119385 366.119385-366.119385 366.119384a58.131692 58.131692 0 0 0 0 82.156308l41.038769 41.038769a57.974154 57.974154 0 0 0 82.077539 0l366.119384-366.119385 366.119385 366.119385a57.974154 57.974154 0 0 0 82.077538 0l41.03877-41.038769a58.131692 58.131692 0 0 0 0-82.156308L701.597538 511.842462z" fill="#1E2330" p-id="5230"></path></svg>