<svg xmlns="http://www.w3.org/2000/svg" xmlns:xlink="http://www.w3.org/1999/xlink" fill="none" version="1.1" width="19.5" height="17.2657470703125" viewBox="0 0 19.5 17.2657470703125"><g><g><path d="M9.749,1.17804L9.63834,1.09838C7.238,-0.570763,3.93618,-0.330725,1.8013,1.77261C0.649175,2.90867,0,4.45988,0,6.07751C0,7.69471,0.648845,9.24574,1.80076,10.3839L8.01706,16.5439C8.46789,17.0034,9.09478,17.2657,9.74899,17.2657C10.4013,17.2657,11.0278,17.0028,11.4867,16.5382L17.6978,10.3894C18.8507,9.25246,19.5,7.70128,19.5,6.08153C19.5,4.46095,18.8501,2.90771,17.6962,1.77209C15.5618,-0.33075,12.26,-0.570765,9.85965,1.09838L9.749,1.17804Z" fill="#40AE36" fill-opacity="1"/></g></g></svg>