<svg xmlns="http://www.w3.org/2000/svg" xmlns:xlink="http://www.w3.org/1999/xlink" version="1.1" width="19.5" height="17.265625" viewBox="0 0 19.5 17.265625"><g><path d="M9.63834,1.09838L9.749,1.17804L9.85965,1.09838C12.26,-0.570765,15.5618,-0.33075,17.6962,1.77209C18.8501,2.90771,19.5,4.46095,19.5,6.08153C19.5,7.70128,18.8507,9.25246,17.6978,10.3894L11.4867,16.5382C11.0278,17.0028,10.4013,17.2657,9.74899,17.2657C9.09478,17.2657,8.46789,17.0034,8.01706,16.5439L1.80076,10.3839C0.648845,9.24574,0,7.69471,0,6.07751C0,4.45988,0.649175,2.90867,1.8013,1.77261C3.93618,-0.330725,7.238,-0.570763,9.63834,1.09838ZM18,6.08149C18,4.86266,17.5113,3.69466,16.6437,2.84088C14.8863,1.10941,12.083,1.04712,10.2512,2.69879L9.74899,3.15167L9.24675,2.69879C7.41502,1.04712,4.6117,1.10941,2.85426,2.84088C1.98818,3.69488,1.5,4.86139,1.5,6.07747C1.5,7.29345,1.98813,8.4603,2.8558,9.3176L9.08027,15.4858C9.25598,15.6649,9.49689,15.7657,9.74899,15.7657C9.99945,15.7657,10.2418,15.664,10.4254,15.4781L16.6435,9.32233C17.5118,8.46616,18,7.29967,18,6.08149Z" fill-rule="evenodd"  fill-opacity="1"/></g></svg>
