<?xml version="1.0" standalone="no"?><!DOCTYPE svg PUBLIC "-//W3C//DTD SVG 1.1//EN" "http://www.w3.org/Graphics/SVG/1.1/DTD/svg11.dtd"><svg t="1733796202541" class="icon" viewBox="0 0 1024 1024" version="1.1" xmlns="http://www.w3.org/2000/svg" p-id="7068" xmlns:xlink="http://www.w3.org/1999/xlink" width="32" height="32"><path d="M622.336 214.016l169.728 169.792 88.576-88.576a53.888 53.888 0 0 0 0-76.224l-93.568-93.504a53.824 53.824 0 0 0-76.16 0zM261.632 914.24l484.736-484.736-169.792-169.728-481.536 481.6a10.56 10.56 0 0 0-3.2 7.552v154.56a10.752 10.752 0 0 0 10.752 10.752z m403.584-834.496a118.464 118.464 0 0 1 167.552 0l93.568 93.568a118.528 118.528 0 0 1 0 167.616l-573.312 573.312h611.392a32.32 32.32 0 1 1 0 64.64H102.592a75.392 75.392 0 0 1-75.392-75.392v-154.56a75.52 75.52 0 0 1 22.08-53.248z" p-id="7069"></path></svg>