<svg xmlns="http://www.w3.org/2000/svg" xmlns:xlink="http://www.w3.org/1999/xlink"  version="1.1" width="23.491485595703125" height="22.775634765625" viewBox="0 0 23.491485595703125 22.775634765625"><g><g><path d="M10.5,5.25Q10.5,5.37888,10.4937,5.50761Q10.4874,5.63633,10.4747,5.76459Q10.4621,5.89285,10.4432,6.02033Q10.4243,6.14782,10.3991,6.27422Q10.374,6.40063,10.3427,6.52565Q10.3113,6.65066,10.2739,6.77399Q10.2365,6.89732,10.1931,7.01867Q10.1497,7.14002,10.1004,7.25909Q10.051,7.37816,9.99594,7.49466Q9.94084,7.61117,9.88009,7.72483Q9.81933,7.8385,9.75307,7.94904Q9.68682,8.05958,9.61521,8.16674Q9.54361,8.2739,9.46684,8.37742Q9.39006,8.48094,9.3083,8.58056Q9.22654,8.68019,9.13999,8.77568Q9.05344,8.87118,8.96231,8.96231Q8.87118,9.05344,8.77568,9.13999Q8.68019,9.22654,8.58056,9.3083Q8.48094,9.39006,8.37742,9.46684Q8.2739,9.54361,8.16674,9.61521Q8.05958,9.68682,7.94904,9.75307Q7.83849,9.81933,7.72483,9.88009Q7.61117,9.94084,7.49466,9.99594Q7.37816,10.051,7.25909,10.1004Q7.14002,10.1497,7.01867,10.1931Q6.89732,10.2365,6.77399,10.2739Q6.65066,10.3113,6.52565,10.3427Q6.40063,10.374,6.27422,10.3991Q6.14782,10.4243,6.02033,10.4432Q5.89285,10.4621,5.76459,10.4747Q5.63633,10.4874,5.50761,10.4937Q5.37888,10.5,5.25,10.5Q5.12112,10.5,4.99239,10.4937Q4.86367,10.4874,4.73541,10.4747Q4.60715,10.4621,4.47966,10.4432Q4.35218,10.4243,4.22578,10.3991Q4.09937,10.374,3.97435,10.3427Q3.84934,10.3113,3.72601,10.2739Q3.60267,10.2365,3.48133,10.1931Q3.35998,10.1497,3.24091,10.1004Q3.12184,10.051,3.00534,9.99594Q2.88883,9.94084,2.77517,9.88009Q2.6615,9.81933,2.55096,9.75307Q2.44042,9.68682,2.33326,9.61521Q2.2261,9.54361,2.12258,9.46684Q2.01906,9.39006,1.91944,9.3083Q1.81981,9.22654,1.72432,9.13999Q1.62882,9.05344,1.53769,8.96231Q1.44656,8.87118,1.36001,8.77568Q1.27346,8.68019,1.1917,8.58056Q1.10993,8.48094,1.03316,8.37742Q0.956386,8.2739,0.884784,8.16674Q0.813182,8.05958,0.746925,7.94904Q0.680667,7.83849,0.619913,7.72483Q0.55916,7.61117,0.504056,7.49466Q0.448953,7.37816,0.399632,7.25909Q0.350312,7.14002,0.306894,7.01867Q0.263475,6.89732,0.226063,6.77399Q0.188651,6.65066,0.157336,6.52565Q0.126021,6.40063,0.100877,6.27422Q0.075734,6.14782,0.0568233,6.02033Q0.0379127,5.89285,0.0252802,5.76459Q0.0126477,5.63633,0.00632385,5.50761Q0,5.37888,0,5.25Q0,5.12112,0.00632385,4.99239Q0.0126477,4.86367,0.0252802,4.73541Q0.0379127,4.60715,0.0568233,4.47966Q0.075734,4.35218,0.100877,4.22578Q0.126021,4.09937,0.157336,3.97435Q0.188651,3.84934,0.226063,3.72601Q0.263475,3.60267,0.306894,3.48133Q0.350312,3.35998,0.399632,3.24091Q0.448953,3.12184,0.504056,3.00534Q0.55916,2.88883,0.619913,2.77517Q0.680667,2.6615,0.746925,2.55096Q0.813182,2.44042,0.884784,2.33326Q0.956386,2.2261,1.03316,2.12258Q1.10993,2.01906,1.1917,1.91944Q1.27346,1.81981,1.36001,1.72432Q1.44656,1.62882,1.53769,1.53769Q1.62882,1.44656,1.72432,1.36001Q1.81981,1.27346,1.91944,1.1917Q2.01906,1.10993,2.12258,1.03316Q2.2261,0.956386,2.33326,0.884784Q2.44042,0.813182,2.55096,0.746925Q2.6615,0.680667,2.77517,0.619913Q2.88883,0.55916,3.00534,0.504056Q3.12184,0.448953,3.24091,0.399632Q3.35998,0.350312,3.48133,0.306894Q3.60267,0.263475,3.72601,0.226063Q3.84934,0.188651,3.97435,0.157336Q4.09937,0.126021,4.22578,0.100877Q4.35218,0.075734,4.47967,0.0568233Q4.60715,0.0379127,4.73541,0.0252802Q4.86367,0.0126477,4.99239,0.00632385Q5.12112,0,5.25,0Q5.37888,0,5.50761,0.00632385Q5.63633,0.0126477,5.76459,0.0252802Q5.89285,0.0379127,6.02033,0.0568233Q6.14782,0.075734,6.27422,0.100877Q6.40063,0.126021,6.52565,0.157336Q6.65066,0.188651,6.77399,0.226063Q6.89732,0.263475,7.01867,0.306894Q7.14002,0.350312,7.25909,0.399632Q7.37816,0.448953,7.49466,0.504056Q7.61117,0.55916,7.72483,0.619913Q7.8385,0.680667,7.94904,0.746925Q8.05958,0.813182,8.16674,0.884784Q8.2739,0.956386,8.37742,1.03316Q8.48094,1.10993,8.58056,1.1917Q8.68019,1.27346,8.77568,1.36001Q8.87118,1.44656,8.96231,1.53769Q9.05344,1.62882,9.13999,1.72432Q9.22654,1.81981,9.3083,1.91944Q9.39006,2.01906,9.46684,2.12258Q9.54361,2.2261,9.61521,2.33326Q9.68682,2.44042,9.75307,2.55096Q9.81933,2.6615,9.88009,2.77517Q9.94084,2.88883,9.99594,3.00534Q10.051,3.12184,10.1004,3.24091Q10.1497,3.35998,10.1931,3.48133Q10.2365,3.60267,10.2739,3.72601Q10.3113,3.84934,10.3427,3.97435Q10.374,4.09937,10.3991,4.22578Q10.4243,4.35218,10.4432,4.47967Q10.4621,4.60715,10.4747,4.73541Q10.4874,4.86367,10.4937,4.99239Q10.5,5.12112,10.5,5.25ZM16.75,10.5Q16.8789,10.5,17.0076,10.4937Q17.1363,10.4874,17.2646,10.4747Q17.3929,10.4621,17.5203,10.4432Q17.6478,10.4243,17.7742,10.3991Q17.9006,10.374,18.0256,10.3427Q18.1507,10.3113,18.274,10.2739Q18.3973,10.2365,18.5187,10.1931Q18.64,10.1497,18.7591,10.1004Q18.8782,10.051,18.9947,9.99594Q19.1112,9.94084,19.2248,9.88009Q19.3385,9.81933,19.449,9.75307Q19.5596,9.68682,19.6667,9.61521Q19.7739,9.54361,19.8774,9.46684Q19.9809,9.39006,20.0806,9.3083Q20.1802,9.22654,20.2757,9.13999Q20.3712,9.05344,20.4623,8.96231Q20.5534,8.87118,20.64,8.77568Q20.7265,8.68019,20.8083,8.58056Q20.8901,8.48094,20.9668,8.37742Q21.0436,8.2739,21.1152,8.16674Q21.1868,8.05958,21.2531,7.94904Q21.3193,7.83849,21.3801,7.72483Q21.4408,7.61117,21.4959,7.49466Q21.551,7.37816,21.6004,7.25909Q21.6497,7.14002,21.6931,7.01867Q21.7365,6.89732,21.7739,6.77399Q21.8113,6.65066,21.8427,6.52565Q21.874,6.40063,21.8991,6.27422Q21.9243,6.14782,21.9432,6.02033Q21.9621,5.89285,21.9747,5.76459Q21.9874,5.63633,21.9937,5.50761Q22,5.37888,22,5.25Q22,5.12112,21.9937,4.99239Q21.9874,4.86367,21.9747,4.73541Q21.9621,4.60715,21.9432,4.47966Q21.9243,4.35218,21.8991,4.22578Q21.874,4.09937,21.8427,3.97435Q21.8113,3.84934,21.7739,3.72601Q21.7365,3.60267,21.6931,3.48133Q21.6497,3.35998,21.6004,3.24091Q21.551,3.12184,21.4959,3.00534Q21.4408,2.88883,21.3801,2.77517Q21.3193,2.6615,21.2531,2.55096Q21.1868,2.44042,21.1152,2.33326Q21.0436,2.2261,20.9668,2.12258Q20.8901,2.01906,20.8083,1.91944Q20.7265,1.81981,20.64,1.72432Q20.5534,1.62882,20.4623,1.53769Q20.3712,1.44656,20.2757,1.36001Q20.1802,1.27346,20.0806,1.1917Q19.9809,1.10993,19.8774,1.03316Q19.7739,0.956386,19.6667,0.884784Q19.5596,0.813182,19.449,0.746925Q19.3385,0.680667,19.2248,0.619913Q19.1112,0.55916,18.9947,0.504056Q18.8782,0.448953,18.7591,0.399632Q18.64,0.350312,18.5187,0.306894Q18.3973,0.263475,18.274,0.226063Q18.1507,0.188651,18.0256,0.157336Q17.9006,0.126021,17.7742,0.100877Q17.6478,0.075734,17.5203,0.0568233Q17.3929,0.0379127,17.2646,0.0252802Q17.1363,0.0126477,17.0076,0.00632385Q16.8789,0,16.75,0Q16.6211,0,16.4924,0.00632385Q16.3637,0.0126477,16.2354,0.0252802Q16.1071,0.0379127,15.9797,0.0568233Q15.8522,0.075734,15.7258,0.100877Q15.5994,0.126021,15.4744,0.157336Q15.3493,0.188651,15.226,0.226063Q15.1027,0.263475,14.9813,0.306894Q14.86,0.350312,14.7409,0.399632Q14.6218,0.448953,14.5053,0.504056Q14.3888,0.55916,14.2752,0.619913Q14.1615,0.680667,14.051,0.746925Q13.9404,0.813182,13.8333,0.884784Q13.7261,0.956386,13.6226,1.03316Q13.5191,1.10993,13.4194,1.1917Q13.3198,1.27346,13.2243,1.36001Q13.1288,1.44656,13.0377,1.53769Q12.9466,1.62882,12.86,1.72432Q12.7735,1.81981,12.6917,1.91944Q12.6099,2.01906,12.5332,2.12258Q12.4564,2.2261,12.3848,2.33326Q12.3132,2.44042,12.2469,2.55096Q12.1807,2.6615,12.1199,2.77517Q12.0592,2.88883,12.0041,3.00534Q11.949,3.12184,11.8996,3.24091Q11.8503,3.35998,11.8069,3.48133Q11.7635,3.60267,11.7261,3.72601Q11.6887,3.84934,11.6573,3.97435Q11.626,4.09937,11.6009,4.22578Q11.5757,4.35218,11.5568,4.47967Q11.5379,4.60715,11.5253,4.73541Q11.5126,4.86367,11.5063,4.99239Q11.5,5.12112,11.5,5.25Q11.5,5.37888,11.5063,5.50761Q11.5126,5.63633,11.5253,5.76459Q11.5379,5.89285,11.5568,6.02033Q11.5757,6.14782,11.6009,6.27422Q11.626,6.40063,11.6573,6.52565Q11.6887,6.65066,11.7261,6.77399Q11.7635,6.89732,11.8069,7.01867Q11.8503,7.14002,11.8996,7.25909Q11.949,7.37816,12.0041,7.49466Q12.0592,7.61117,12.1199,7.72483Q12.1807,7.8385,12.2469,7.94904Q12.3132,8.05958,12.3848,8.16674Q12.4564,8.2739,12.5332,8.37742Q12.6099,8.48094,12.6917,8.58056Q12.7735,8.68019,12.86,8.77568Q12.9466,8.87118,13.0377,8.96231Q13.1288,9.05344,13.2243,9.13999Q13.3198,9.22654,13.4194,9.3083Q13.5191,9.39006,13.6226,9.46684Q13.7261,9.54361,13.8333,9.61521Q13.9404,9.68682,14.051,9.75307Q14.1615,9.81933,14.2752,9.88009Q14.3888,9.94084,14.5053,9.99594Q14.6218,10.051,14.7409,10.1004Q14.86,10.1497,14.9813,10.1931Q15.1027,10.2365,15.226,10.2739Q15.3493,10.3113,15.4744,10.3427Q15.5994,10.374,15.7258,10.3991Q15.8522,10.4243,15.9797,10.4432Q16.1071,10.4621,16.2354,10.4747Q16.3637,10.4874,16.4924,10.4937Q16.6211,10.5,16.75,10.5ZM8.5,5.25Q8.5,5.40966,8.48435,5.56856Q8.4687,5.72745,8.43755,5.88404Q8.4064,6.04064,8.36006,6.19343Q8.31371,6.34621,8.25261,6.49372Q8.19151,6.64123,8.11624,6.78204Q8.04098,6.92285,7.95227,7.0556Q7.86357,7.18836,7.76228,7.31178Q7.661,7.4352,7.5481,7.5481Q7.4352,7.661,7.31178,7.76228Q7.18836,7.86357,7.0556,7.95228Q6.92285,8.04098,6.78204,8.11624Q6.64123,8.19151,6.49372,8.25261Q6.34621,8.31371,6.19342,8.36006Q6.04064,8.4064,5.88404,8.43755Q5.72745,8.4687,5.56856,8.48435Q5.40966,8.5,5.25,8.5Q5.09034,8.5,4.93144,8.48435Q4.77255,8.4687,4.61596,8.43755Q4.45936,8.4064,4.30657,8.36006Q4.15379,8.31371,4.00628,8.25261Q3.85877,8.19151,3.71796,8.11624Q3.57715,8.04098,3.4444,7.95227Q3.31164,7.86357,3.18822,7.76228Q3.0648,7.661,2.9519,7.5481Q2.839,7.4352,2.73772,7.31178Q2.63643,7.18836,2.54772,7.0556Q2.45902,6.92285,2.38376,6.78204Q2.30849,6.64123,2.24739,6.49372Q2.18629,6.34621,2.13994,6.19342Q2.0936,6.04064,2.06245,5.88404Q2.0313,5.72745,2.01565,5.56856Q2,5.40966,2,5.25Q2,5.09034,2.01565,4.93144Q2.0313,4.77255,2.06245,4.61596Q2.0936,4.45936,2.13994,4.30657Q2.18629,4.15379,2.24739,4.00628Q2.30849,3.85877,2.38376,3.71796Q2.45902,3.57715,2.54772,3.4444Q2.63643,3.31164,2.73772,3.18822Q2.839,3.0648,2.9519,2.9519Q3.0648,2.839,3.18822,2.73772Q3.31164,2.63643,3.4444,2.54772Q3.57715,2.45902,3.71796,2.38376Q3.85877,2.30849,4.00628,2.24739Q4.15379,2.18629,4.30657,2.13994Q4.45936,2.0936,4.61596,2.06245Q4.77255,2.0313,4.93144,2.01565Q5.09034,2,5.25,2Q5.40966,2,5.56856,2.01565Q5.72745,2.0313,5.88404,2.06245Q6.04064,2.0936,6.19343,2.13994Q6.34621,2.18629,6.49372,2.24739Q6.64123,2.30849,6.78204,2.38376Q6.92285,2.45902,7.0556,2.54772Q7.18836,2.63643,7.31178,2.73772Q7.4352,2.839,7.5481,2.9519Q7.661,3.0648,7.76228,3.18822Q7.86357,3.31164,7.95228,3.4444Q8.04098,3.57715,8.11624,3.71796Q8.19151,3.85877,8.25261,4.00628Q8.31371,4.15379,8.36006,4.30657Q8.4064,4.45936,8.43755,4.61596Q8.4687,4.77255,8.48435,4.93144Q8.5,5.09034,8.5,5.25ZM16.75,8.5Q16.9097,8.5,17.0686,8.48435Q17.2274,8.4687,17.384,8.43755Q17.5406,8.4064,17.6934,8.36006Q17.8462,8.31371,17.9937,8.25261Q18.1412,8.19151,18.282,8.11624Q18.4228,8.04098,18.5556,7.95227Q18.6884,7.86357,18.8118,7.76228Q18.9352,7.661,19.0481,7.5481Q19.161,7.4352,19.2623,7.31178Q19.3636,7.18836,19.4523,7.0556Q19.541,6.92285,19.6162,6.78204Q19.6915,6.64123,19.7526,6.49372Q19.8137,6.34621,19.8601,6.19342Q19.9064,6.04064,19.9375,5.88404Q19.9687,5.72745,19.9844,5.56856Q20,5.40966,20,5.25Q20,5.09034,19.9844,4.93144Q19.9687,4.77255,19.9375,4.61596Q19.9064,4.45936,19.8601,4.30657Q19.8137,4.15379,19.7526,4.00628Q19.6915,3.85877,19.6162,3.71796Q19.541,3.57715,19.4523,3.4444Q19.3636,3.31164,19.2623,3.18822Q19.161,3.0648,19.0481,2.9519Q18.9352,2.839,18.8118,2.73772Q18.6884,2.63643,18.5556,2.54772Q18.4228,2.45902,18.282,2.38376Q18.1412,2.30849,17.9937,2.24739Q17.8462,2.18629,17.6934,2.13994Q17.5406,2.0936,17.384,2.06245Q17.2274,2.0313,17.0686,2.01565Q16.9097,2,16.75,2Q16.5903,2,16.4314,2.01565Q16.2726,2.0313,16.116,2.06245Q15.9594,2.0936,15.8066,2.13994Q15.6538,2.18629,15.5063,2.24739Q15.3588,2.30849,15.218,2.38376Q15.0771,2.45902,14.9444,2.54772Q14.8116,2.63643,14.6882,2.73772Q14.5648,2.839,14.4519,2.9519Q14.339,3.0648,14.2377,3.18822Q14.1364,3.31164,14.0477,3.4444Q13.959,3.57715,13.8838,3.71796Q13.8085,3.85877,13.7474,4.00628Q13.6863,4.15379,13.6399,4.30657Q13.5936,4.45936,13.5624,4.61596Q13.5313,4.77255,13.5156,4.93144Q13.5,5.09034,13.5,5.25Q13.5,5.40966,13.5156,5.56856Q13.5313,5.72745,13.5624,5.88404Q13.5936,6.04064,13.6399,6.19343Q13.6863,6.34621,13.7474,6.49372Q13.8085,6.64123,13.8838,6.78204Q13.959,6.92285,14.0477,7.0556Q14.1364,7.18836,14.2377,7.31178Q14.339,7.4352,14.4519,7.5481Q14.5648,7.661,14.6882,7.76228Q14.8116,7.86357,14.9444,7.95228Q15.0771,8.04098,15.218,8.11624Q15.3588,8.19151,15.5063,8.25261Q15.6538,8.31371,15.8066,8.36006Q15.9594,8.4064,16.116,8.43755Q16.2726,8.4687,16.4314,8.48435Q16.5903,8.5,16.75,8.5ZM10.5,16.75Q10.5,16.8789,10.4937,17.0076Q10.4874,17.1363,10.4747,17.2646Q10.4621,17.3929,10.4432,17.5203Q10.4243,17.6478,10.3991,17.7742Q10.374,17.9006,10.3427,18.0256Q10.3113,18.1507,10.2739,18.274Q10.2365,18.3973,10.1931,18.5187Q10.1497,18.64,10.1004,18.7591Q10.051,18.8782,9.99594,18.9947Q9.94084,19.1112,9.88009,19.2248Q9.81933,19.3385,9.75307,19.449Q9.68682,19.5596,9.61521,19.6667Q9.54361,19.7739,9.46684,19.8774Q9.39006,19.9809,9.3083,20.0806Q9.22654,20.1802,9.13999,20.2757Q9.05344,20.3712,8.96231,20.4623Q8.87118,20.5534,8.77568,20.64Q8.68019,20.7265,8.58056,20.8083Q8.48094,20.8901,8.37742,20.9668Q8.2739,21.0436,8.16674,21.1152Q8.05958,21.1868,7.94904,21.2531Q7.83849,21.3193,7.72483,21.3801Q7.61117,21.4408,7.49466,21.4959Q7.37816,21.551,7.25909,21.6004Q7.14002,21.6497,7.01867,21.6931Q6.89732,21.7365,6.77399,21.7739Q6.65066,21.8113,6.52565,21.8427Q6.40063,21.874,6.27422,21.8991Q6.14782,21.9243,6.02033,21.9432Q5.89285,21.9621,5.76459,21.9747Q5.63633,21.9874,5.50761,21.9937Q5.37888,22,5.25,22Q5.12112,22,4.99239,21.9937Q4.86367,21.9874,4.73541,21.9747Q4.60715,21.9621,4.47966,21.9432Q4.35218,21.9243,4.22578,21.8991Q4.09937,21.874,3.97435,21.8427Q3.84934,21.8113,3.72601,21.7739Q3.60267,21.7365,3.48133,21.6931Q3.35998,21.6497,3.24091,21.6004Q3.12184,21.551,3.00534,21.4959Q2.88883,21.4408,2.77517,21.3801Q2.6615,21.3193,2.55096,21.2531Q2.44042,21.1868,2.33326,21.1152Q2.2261,21.0436,2.12258,20.9668Q2.01906,20.8901,1.91944,20.8083Q1.81981,20.7265,1.72432,20.64Q1.62882,20.5534,1.53769,20.4623Q1.44656,20.3712,1.36001,20.2757Q1.27346,20.1802,1.1917,20.0806Q1.10993,19.9809,1.03316,19.8774Q0.956386,19.7739,0.884784,19.6667Q0.813182,19.5596,0.746925,19.449Q0.680667,19.3385,0.619913,19.2248Q0.55916,19.1112,0.504056,18.9947Q0.448953,18.8782,0.399632,18.7591Q0.350312,18.64,0.306894,18.5187Q0.263475,18.3973,0.226063,18.274Q0.188651,18.1507,0.157336,18.0256Q0.126021,17.9006,0.100877,17.7742Q0.075734,17.6478,0.0568233,17.5203Q0.0379127,17.3929,0.0252802,17.2646Q0.0126477,17.1363,0.00632385,17.0076Q0,16.8789,0,16.75Q0,16.6211,0.00632385,16.4924Q0.0126477,16.3637,0.0252802,16.2354Q0.0379127,16.1071,0.0568233,15.9797Q0.075734,15.8522,0.100877,15.7258Q0.126021,15.5994,0.157336,15.4744Q0.188651,15.3493,0.226063,15.226Q0.263475,15.1027,0.306894,14.9813Q0.350312,14.86,0.399632,14.7409Q0.448953,14.6218,0.504056,14.5053Q0.55916,14.3888,0.619913,14.2752Q0.680667,14.1615,0.746925,14.051Q0.813182,13.9404,0.884784,13.8333Q0.956386,13.7261,1.03316,13.6226Q1.10993,13.5191,1.1917,13.4194Q1.27346,13.3198,1.36001,13.2243Q1.44656,13.1288,1.53769,13.0377Q1.62882,12.9466,1.72432,12.86Q1.81981,12.7735,1.91944,12.6917Q2.01906,12.6099,2.12258,12.5332Q2.2261,12.4564,2.33326,12.3848Q2.44042,12.3132,2.55096,12.2469Q2.6615,12.1807,2.77517,12.1199Q2.88883,12.0592,3.00534,12.0041Q3.12184,11.949,3.24091,11.8996Q3.35998,11.8503,3.48133,11.8069Q3.60267,11.7635,3.72601,11.7261Q3.84934,11.6887,3.97435,11.6573Q4.09937,11.626,4.22578,11.6009Q4.35218,11.5757,4.47967,11.5568Q4.60715,11.5379,4.73541,11.5253Q4.86367,11.5126,4.99239,11.5063Q5.12112,11.5,5.25,11.5Q5.37888,11.5,5.50761,11.5063Q5.63633,11.5126,5.76459,11.5253Q5.89285,11.5379,6.02033,11.5568Q6.14782,11.5757,6.27422,11.6009Q6.40063,11.626,6.52565,11.6573Q6.65066,11.6887,6.77399,11.7261Q6.89732,11.7635,7.01867,11.8069Q7.14002,11.8503,7.25909,11.8996Q7.37816,11.949,7.49466,12.0041Q7.61117,12.0592,7.72483,12.1199Q7.8385,12.1807,7.94904,12.2469Q8.05958,12.3132,8.16674,12.3848Q8.2739,12.4564,8.37742,12.5332Q8.48094,12.6099,8.58056,12.6917Q8.68019,12.7735,8.77568,12.86Q8.87118,12.9466,8.96231,13.0377Q9.05344,13.1288,9.13999,13.2243Q9.22654,13.3198,9.3083,13.4194Q9.39006,13.5191,9.46684,13.6226Q9.54361,13.7261,9.61521,13.8333Q9.68682,13.9404,9.75307,14.051Q9.81933,14.1615,9.88009,14.2752Q9.94084,14.3888,9.99594,14.5053Q10.051,14.6218,10.1004,14.7409Q10.1497,14.86,10.1931,14.9813Q10.2365,15.1027,10.2739,15.226Q10.3113,15.3493,10.3427,15.4744Q10.374,15.5994,10.3991,15.7258Q10.4243,15.8522,10.4432,15.9797Q10.4621,16.1071,10.4747,16.2354Q10.4874,16.3637,10.4937,16.4924Q10.5,16.6211,10.5,16.75ZM16.75,11.5C19.6495,11.5,22,13.8505,22,16.75C22,17.6911,21.7524,18.5744,21.3187,19.3382L23.1683,21.0394C23.5749,21.4132,23.6014,22.0458,23.2276,22.4524C22.8735,22.8376,22.2871,22.8817,21.8807,22.5674L21.8147,22.5117L20.0172,20.8598C19.1206,21.5735,17.9851,22,16.75,22C13.8505,22,11.5,19.6495,11.5,16.75C11.5,13.8505,13.8505,11.5,16.75,11.5ZM8.5,16.75Q8.5,16.9097,8.48435,17.0686Q8.4687,17.2274,8.43755,17.384Q8.4064,17.5406,8.36006,17.6934Q8.31371,17.8462,8.25261,17.9937Q8.19151,18.1412,8.11624,18.282Q8.04098,18.4228,7.95227,18.5556Q7.86357,18.6884,7.76228,18.8118Q7.661,18.9352,7.5481,19.0481Q7.4352,19.161,7.31178,19.2623Q7.18836,19.3636,7.0556,19.4523Q6.92285,19.541,6.78204,19.6162Q6.64123,19.6915,6.49372,19.7526Q6.34621,19.8137,6.19342,19.8601Q6.04064,19.9064,5.88404,19.9375Q5.72745,19.9687,5.56856,19.9844Q5.40966,20,5.25,20Q5.09034,20,4.93144,19.9844Q4.77255,19.9687,4.61596,19.9375Q4.45936,19.9064,4.30657,19.8601Q4.15379,19.8137,4.00628,19.7526Q3.85877,19.6915,3.71796,19.6162Q3.57715,19.541,3.4444,19.4523Q3.31164,19.3636,3.18822,19.2623Q3.0648,19.161,2.9519,19.0481Q2.839,18.9352,2.73772,18.8118Q2.63643,18.6884,2.54772,18.5556Q2.45902,18.4228,2.38376,18.282Q2.30849,18.1412,2.24739,17.9937Q2.18629,17.8462,2.13994,17.6934Q2.0936,17.5406,2.06245,17.384Q2.0313,17.2274,2.01565,17.0686Q2,16.9097,2,16.75Q2,16.5903,2.01565,16.4314Q2.0313,16.2726,2.06245,16.116Q2.0936,15.9594,2.13994,15.8066Q2.18629,15.6538,2.24739,15.5063Q2.30849,15.3588,2.38376,15.218Q2.45902,15.0771,2.54772,14.9444Q2.63643,14.8116,2.73772,14.6882Q2.839,14.5648,2.9519,14.4519Q3.0648,14.339,3.18822,14.2377Q3.31164,14.1364,3.4444,14.0477Q3.57715,13.959,3.71796,13.8838Q3.85877,13.8085,4.00628,13.7474Q4.15379,13.6863,4.30657,13.6399Q4.45936,13.5936,4.61596,13.5624Q4.77255,13.5313,4.93144,13.5156Q5.09034,13.5,5.25,13.5Q5.40966,13.5,5.56856,13.5156Q5.72745,13.5313,5.88404,13.5624Q6.04064,13.5936,6.19343,13.6399Q6.34621,13.6863,6.49372,13.7474Q6.64123,13.8085,6.78204,13.8838Q6.92285,13.959,7.0556,14.0477Q7.18836,14.1364,7.31178,14.2377Q7.4352,14.339,7.5481,14.4519Q7.661,14.5648,7.76228,14.6882Q7.86357,14.8116,7.95228,14.9444Q8.04098,15.0771,8.11624,15.218Q8.19151,15.3588,8.25261,15.5063Q8.31371,15.6538,8.36006,15.8066Q8.4064,15.9594,8.43755,16.116Q8.4687,16.2726,8.48435,16.4314Q8.5,16.5903,8.5,16.75ZM16.75,13.5C14.9551,13.5,13.5,14.9551,13.5,16.75C13.5,18.5449,14.9551,20,16.75,20C17.7147,20,18.5812,19.5797,19.1764,18.9122C19.201,18.8747,19.2295,18.8391,19.2607,18.8052L19.2872,18.7813C19.7332,18.2249,20,17.5186,20,16.75C20,14.9551,18.5449,13.5,16.75,13.5Z" fill-rule="evenodd"  fill-opacity="1"/></g></g></svg>
