<?xml version="1.0" standalone="no"?><!DOCTYPE svg PUBLIC "-//W3C//DTD SVG 1.1//EN" "http://www.w3.org/Graphics/SVG/1.1/DTD/svg11.dtd"><svg t="1732151978466" class="icon" viewBox="0 0 1024 1024" version="1.1" xmlns="http://www.w3.org/2000/svg" p-id="4268" xmlns:xlink="http://www.w3.org/1999/xlink" width="32" height="32"><path d="M690.744889 869.603556h-358.4c-45.767111 0-83.000889-37.063111-83.000889-82.403556V289.877333a27.591111 27.591111 0 0 1 27.648-27.648h469.219556a27.591111 27.591111 0 0 1 27.648 27.648v497.208889a82.915556 82.915556 0 0 1-83.114667 82.488889zM304.64 317.610667v469.589333c0 15.018667 12.373333 27.107556 27.648 27.107556h358.485333a27.392 27.392 0 0 0 27.648-27.107556v-469.617778H304.64z m520.533333 0H197.859556a27.591111 27.591111 0 1 1 0-55.296H825.173333a27.591111 27.591111 0 1 1 0 55.296z m-175.274666 0h-276.707556c-8.817778 0-17.066667-4.181333-22.215111-11.292445a27.562667 27.562667 0 0 1-4.181333-24.547555l34.474666-112.184889a27.704889 27.704889 0 0 1 26.396445-19.541334h207.559111c12.174222 0 22.840889 7.907556 26.396444 19.569778l34.673778 112.156445a27.505778 27.505778 0 0 1-4.181333 24.547555 27.306667 27.306667 0 0 1-22.215111 11.292445z m-239.217778-55.381334h201.784889l-17.493334-56.888889h-166.769777l-17.521778 56.888889z m27.136 479.004445a27.591111 27.591111 0 0 1-27.648-27.648V418.218667a27.591111 27.591111 0 1 1 55.296 0v295.196444a27.875556 27.875556 0 0 1-27.648 27.818667z m147.541333 0a27.591111 27.591111 0 0 1-27.648-27.648V418.218667a27.591111 27.591111 0 1 1 55.296 0v295.196444a27.761778 27.761778 0 0 1-27.648 27.818667z" p-id="4269"></path></svg>
