<svg t="1733105253417" class="icon" viewBox="0 0 1063 1024" version="1.1" xmlns="http://www.w3.org/2000/svg" p-id="4405" width="32" height="32"><path d="M430.842553 334.978723a462.978723 462.978723 0 0 0-69.174468 173.753192 45.753191 45.753191 0 0 0 38.672341 51.744681h6.53617a46.297872 46.297872 0 0 0 45.20851-38.672341A381.276596 381.276596 0 0 1 508.731915 381.276596a298.485106 298.485106 0 0 1 262.53617-132.357447h4.357447a45.753191 45.753191 0 0 0 45.753191-45.753192v-54.468085L949.923404 272.340426l-128.544681 108.93617v-43.574468a45.753191 45.753191 0 0 0-91.506383 0v141.07234a45.753191 45.753191 0 0 0 26.689362 41.395745 44.119149 44.119149 0 0 0 19.06383 4.357447 45.753191 45.753191 0 0 0 28.868085-10.348937l242.92766-202.076595a46.297872 46.297872 0 0 0 0-68.085107L806.67234 12.52766a45.753191 45.753191 0 0 0-76.8 33.225531V163.404255a384.544681 384.544681 0 0 0-299.029787 171.574468z m477.140426 268.52766a45.753191 45.753191 0 0 0-45.753192 45.753191v260.357447a23.965957 23.965957 0 0 1-23.965957 23.965958H114.92766a23.965957 23.965957 0 0 1-23.965958-23.965958V160.13617a23.965957 23.965957 0 0 1 23.965958-23.965957h326.80851a45.753191 45.753191 0 1 0 0-91.506383h-326.80851A114.92766 114.92766 0 0 0 0 159.591489v749.480851a114.92766 114.92766 0 0 0 114.92766 114.92766H838.808511a114.92766 114.92766 0 0 0 114.927659-114.92766v-259.812766a45.753191 45.753191 0 0 0-45.753191-45.753191z" p-id="4406"></path></svg>
